<svg viewBox="0 0 600 600" xmlns="http://www.w3.org/2000/svg"><defs><linearGradient x1="26.001%" y1="23.093%" x2="73.071%" y2="78.821%" id="bbvabranch_a"><stop stop-color="#192647" offset="0%"/><stop stop-color="#192647" stop-opacity=".3" offset="0%"/><stop stop-color="#192647" stop-opacity="0" offset="100%"/></linearGradient><linearGradient x1="7.756%" y1="2.716%" x2="68.17%" y2="69.264%" id="bbvabranch_b"><stop stop-color="#FFF" stop-opacity=".5" offset="0%"/><stop stop-color="#E8F7F8" stop-opacity=".2" offset="100%"/><stop stop-color="#FFF" stop-opacity="0" offset="100%"/></linearGradient><linearGradient x1="26.383%" y1="9.186%" x2="58.459%" y2="62.679%" id="bbvabranch_c"><stop stop-color="#FFF" stop-opacity=".5" offset="0%"/><stop stop-color="#E8F7F8" stop-opacity=".2" offset="100%"/><stop stop-color="#FFF" stop-opacity="0" offset="100%"/></linearGradient></defs><g fill="none" fill-rule="evenodd"><g fill-rule="nonzero"><path d="M535.04 268.748a4.012 4.012 0 0 0 3.92-3.922v-13.07a30.29 30.29 0 0 0-8.867-21.441 30.27 30.27 0 0 0-21.434-8.87H96.523a30.27 30.27 0 0 0-21.434 8.87 30.29 30.29 0 0 0-8.867 21.44v13.071a4.012 4.012 0 0 0 3.92 3.922H81.98v223.928h-5.226a10.452 10.452 0 0 0-7.497 3.062 10.46 10.46 0 0 0-3.062 7.499V519H539v-15.763a10.524 10.524 0 0 0-10.571-10.561h-5.227V268.748h11.839Z" fill="url(#bbvabranch_a)" transform="translate(61 41)"/><path d="M384.805 41H206.288a40.07 40.07 0 0 0-28.377 11.741 40.094 40.094 0 0 0-11.737 28.386v30.952c.021 22.15 17.97 40.1 40.114 40.114h61.78a2.9 2.9 0 0 1 2.247.954l22.932 22.952a3.227 3.227 0 0 0 4.6 0l22.931-22.952a3.07 3.07 0 0 1 2.248-.954h61.779a40.07 40.07 0 0 0 28.382-11.746 40.095 40.095 0 0 0 11.733-28.394V81.127c-.015-22.155-17.966-40.113-40.115-40.127Z" fill="#004481"/><path d="m335.504 74.618-14.726 27.971a.967.967 0 0 1-1.306.314l-.314-.314-14.726-27.971a.719.719 0 0 0-.745-.418h-7.043a.614.614 0 0 0-.64.64.38.38 0 0 0 .105.314l23.154 43.434a.863.863 0 0 0 1.176.431c.104-.104.313-.209.418-.431l23.154-43.434a.667.667 0 0 0-.21-.85.392.392 0 0 0-.326-.104h-7.147a.77.77 0 0 0-.85.418m8.245 37.356 14.727-27.958a.954.954 0 0 1 1.306-.327l.314.327 14.726 27.958a.706.706 0 0 0 .745.431h7.043a.614.614 0 0 0 .64-.64.418.418 0 0 0-.105-.327l-23.18-43.434c-.209-.431-.64-.536-1.176-.431-.166.12-.311.265-.431.431l-23.141 43.434c-.16.3-.07.67.209.863.083.081.199.12.314.104h7.147c.536 0 .862-.104.862-.43m-110.008.43H220.48a.928.928 0 0 1-.85-.85V99.702a.928.928 0 0 1 .85-.85h13.236c6.298 0 9.147 1.817 9.147 6.718-.105 5.124-2.875 6.836-9.147 6.836M220.48 80.71h13.066c4.796 0 7.357 2.026 7.357 5.869 0 3.842-2.457 5.868-7.357 5.868H220.48a.928.928 0 0 1-.85-.85v-9.985c-.104-.536.222-.85.85-.85m22.736 14.09a9.53 9.53 0 0 0 5.017-8.966c0-7.045-5.449-11.764-13.132-11.764h-22.082a.915.915 0 0 0-.85.863v43.133a.915.915 0 0 0 .85.85h21.128c10.558 0 16.112-4.588 16.112-13.45 0-8.64-7.043-10.666-7.043-10.666m35.736 17.553h-13.223a.928.928 0 0 1-.863-.85V99.702a.928.928 0 0 1 .863-.85h13.223c6.298 0 9.147 1.817 9.147 6.718-.105 5.124-2.77 6.836-9.147 6.836M265.729 80.71h13.066c4.809 0 7.37 2.026 7.37 5.869 0 3.842-2.457 5.868-7.37 5.868H265.73a.928.928 0 0 1-.863-.85v-9.985a.784.784 0 0 1 .863-.85m22.722 14.09a9.53 9.53 0 0 0 5.018-8.966c0-7.045-5.449-11.764-13.132-11.764h-22.03a.915.915 0 0 0-.85.863v43.133a.915.915 0 0 0 .85.85h21.128c10.558 0 16.112-4.588 16.112-13.45 0-8.64-6.939-10.666-7.043-10.666" fill="#FFF"/><path fill="#1464A5" d="M76.68 246.956h437.733v222.203H76.68z"/><path d="M91.053 199.901H500.04c16.598 0 30.053 13.46 30.053 30.063v13.07a3.92 3.92 0 0 1-3.92 3.922H64.92a3.92 3.92 0 0 1-3.92-3.922v-13.07C61 213.36 74.455 199.9 91.053 199.9Z" fill="#043263"/><path d="M71.453 469.158H519.64c5.773 0 10.453 4.682 10.453 10.457V495.3H61v-15.685c0-5.775 4.68-10.457 10.453-10.457Z" fill="#2DCCCD"/><path d="M119.8 286.168h190.773a3.92 3.92 0 0 1 3.92 3.921v135.936a3.92 3.92 0 0 1-3.92 3.921H119.8a3.92 3.92 0 0 1-3.92-3.921V290.089a3.92 3.92 0 0 1 3.92-3.921Z" fill="#49A5E6"/><path d="M58.8 245.168a3.921 3.921 0 0 0-3.92 3.79v136.328a3.921 3.921 0 0 0 3.92 3.79h45.995L185.547 245.3 58.8 245.168Z" fill="url(#bbvabranch_b)" opacity=".5" transform="translate(61 41)"/><path d="M357.613 286.168h112.374a3.92 3.92 0 0 1 3.92 3.921v179.07H353.693v-179.07a3.92 3.92 0 0 1 3.92-3.921Z" fill="#49A5E6"/><path d="M296.483 245.168a3.92 3.92 0 0 0-3.92 3.921v179.07h15.026l94.734-182.991h-105.84Z" fill="url(#bbvabranch_c)" opacity=".5" transform="translate(61 41)"/><path fill="#1464A5" d="M411.187 286.168h5.227v182.99h-5.227z"/><path d="M400.733 390.734a2.614 2.614 0 0 1-2.613-2.614v-20.913a2.614 2.614 0 1 1 5.227 0v20.913a2.614 2.614 0 0 1-2.614 2.614Zm26.134 0a2.614 2.614 0 0 1-2.614-2.614v-20.913a2.614 2.614 0 1 1 5.227 0v20.913a2.614 2.614 0 0 1-2.613 2.614Z" fill="#EAF9FA"/></g><path d="M0 0h600v600H0z"/></g></svg>